<?xml version="1.0" encoding="UTF-8" standalone="no"?>
<!-- Created with Inkscape (http://www.inkscape.org/) -->

<svg
   version="1.1"
   id="svg1"
   width="1024"
   height="1024"
   viewBox="0 0 1024 1024"
   xmlns="http://www.w3.org/2000/svg"
   xmlns:svg="http://www.w3.org/2000/svg">
  <defs
     id="defs1" />
  <g
     id="g1">
    <path
       style="fill:#000000"
       d="m 320.82858,813.45108 c -20.33714,-3.70006 -42.4995,-13.05725 -58.04042,-24.50529 -26.64934,-19.63091 -44.53015,-48.5622 -51.6541,-83.57672 -1.70246,-8.36767 -1.80548,-19.51519 -1.80548,-195.374 0,-176.63886 0.0962,-186.93718 1.81955,-194.76818 10.58565,-48.10193 43.59959,-85.50008 88.40092,-100.14047 19.88023,-6.49656 9.3839,-6.21168 216.27953,-5.87009 l 187.5,0.30956 10,2.69565 c 12.66012,3.41273 18.64379,5.73587 30.5,11.84156 37.84298,19.4883 65.1746,59.22664 70.0044,101.78183 0.7674,6.76137 0.9895,63.98214 0.7419,191.15014 -0.321,164.86496 -0.5059,182.17288 -2.0173,188.84155 -8.17382,36.06604 -24.73667,63.14566 -50.61884,82.75993 -10.22352,7.74767 -31.33881,18.38873 -42.55889,21.44756 -18.72371,5.10448 -12.08309,4.94944 -208.05127,4.85742 -149.97572,-0.0704 -184.35345,-0.33218 -190.5,-1.45045 z M 696.94759,776.5273 c 35.61654,-6.23758 64.20525,-30.20631 75.46501,-63.26975 1.82854,-5.36937 3.79177,-12.68748 4.36274,-16.26248 0.68924,-4.31551 1.04067,-66.70433 1.04569,-185.63953 0.008,-197.02957 0.31111,-186.86638 -6.05903,-203.36047 -8.37484,-21.6848 -26.34636,-41.71969 -46.43342,-51.7646 -7.80924,-3.90516 -20.09332,-7.73118 -29.5,-9.18812 -5.54861,-0.85939 -54.72354,-1.07827 -189,-0.84126 -173.8418,0.30686 -181.77426,0.39935 -188,2.19215 -36.71187,10.57174 -62.44451,36.62356 -70.72459,71.60183 -1.66694,7.04178 -1.77541,18.74178 -1.77541,191.5 v 184 l 2.3502,9 c 5.72215,21.91269 17.81809,40.31923 35.00815,53.27233 12.88833,9.71165 29.98727,16.91869 45.64165,19.23752 2.75,0.40735 84.70355,0.79678 182.11901,0.86539 151.63405,0.10681 178.32492,-0.0864 185.5,-1.34301 z M 520.0511,752.93296 c -6.39012,-1.25933 -13.86644,-5.74799 -18.90144,-11.34811 -5.12915,-5.70486 -7.30607,-9.64337 -10.97032,-19.84764 -10.30163,-28.68816 -31.16673,-51.02071 -61.08323,-65.37923 -28.9101,-13.8755 -63.73493,-22.73437 -103.76753,-26.39678 -15.46314,-1.41466 -16.21524,-1.59046 -19.08612,-4.46134 l -2.41388,-2.41388 0.0147,-158.29546 c 0.0115,-123.64114 0.28517,-158.82165 1.25,-160.69905 2.51748,-4.89859 5.88414,-6.36059 14.27303,-6.19818 15.8415,0.3067 41.81257,4.53641 64.96223,10.57992 55.3675,14.45436 102.88352,42.70254 125.18886,74.42452 0.15572,0.22147 1.28749,-0.90353 2.51503,-2.5 23.0939,-30.03435 67.90394,-53.78292 130.79611,-69.31974 20.11275,-4.96864 52.58189,-10.97577 63.65372,-11.77662 7.82327,-0.56587 8.2593,-0.48419 10.75904,2.01555 l 2.60532,2.60532 -0.25904,160.47084 -0.25904,160.47083 -2.86748,2.99292 c -1.57711,1.64611 -4.05211,3.45689 -5.5,4.02396 -1.44789,0.56707 -11.2784,2.17606 -21.84559,3.57553 -32.32712,4.28126 -51.46273,8.77765 -79.49146,18.67854 -35.99457,12.71475 -65.36159,32.09127 -73.37582,48.41378 -6.07121,12.36518 -2.92278,25.06016 9.60605,38.73317 l 6.06259,6.61624 -2.83849,1.46784 c -7.67385,3.96831 -19.57209,5.43044 -29.02728,3.56707 z M 490.28732,430.58401 c -2.75083,-13.73091 -8.42339,-24.13296 -19.78219,-36.27555 -23.7894,-25.43094 -68.20769,-46.49785 -117.53702,-55.74599 -4.59826,-0.86207 -9.21076,-1.5674 -10.25,-1.5674 -1.84279,0 -1.88953,3.14123 -1.88953,126.98095 v 126.98095 l 2.25,0.42889 c 1.2375,0.23589 8.36208,1.37276 15.83239,2.52639 54.22349,8.3736 98.61979,28.06184 124.41761,55.17495 l 8,8.40787 0.27182,-109.5 c 0.23997,-96.67122 0.0861,-110.42684 -1.31308,-117.41106 z m 60.21743,209.09987 c 28.42913,-18.86173 69.43143,-32.6229 118.29555,-39.70227 7.95945,-1.15316 14.59865,-2.22358 14.75379,-2.37871 0.15513,-0.15514 0.16786,-58.11297 0.0283,-128.79517 l -0.25381,-128.5131 -14,2.75559 c -56.96787,11.21284 -98.77643,29.09228 -121.41196,51.92186 -8.00212,8.07072 -12.58245,14.89531 -16.94265,25.2442 l -2.64539,6.27879 -0.26641,115.88 -0.2664,115.88001 6.44257,-6.02672 c 3.54342,-3.31469 10.8633,-8.95971 16.26641,-12.54448 z"
       id="path1" />
  </g>
</svg>
